Patient4_TMGait_0pt3_02_right_13_GRF.mot
version=1
nRows=71
nColumns=19
inDegrees=no
endheader
time	F1x	F1y	F1z	M1x	M1y	M1z	F2x	F2y	F2z	M2x	M2y	M2z	EC1x	EC1y	EC1z	EC2x	EC2y	EC2z
24.4	-27.9698	953.8364	58.1256	-338.9826	-66.6999	948.3781	-7.5473	7.2773	-4.3664	3.3475	5.2388	5.3794	-0.0592	0.0182	-0.0073	-0.0462	0.0165	0.9585
24.4188	-26.1877	951.4474	59.3571	-337.027	-66.2487	943.276	-5.3742	5.8196	-3.1051	2.5932	3.7772	4.4607	-0.0592	0.0182	-0.0073	-0.0462	0.0165	0.9585
24.4376	-24.2176	944.8536	60.6062	-333.5676	-65.7591	933.5588	-3.3816	4.3815	-1.9612	1.8834	2.4239	3.5301	-0.0592	0.0182	-0.0073	-0.0462	0.0165	0.9585
24.4564	-22.1507	932.8272	61.6411	-328.2781	-65.0952	918.1958	-1.7697	3.1628	-1.043	1.2993	1.3204	2.7318	-0.0592	0.0182	-0.0073	-0.0462	0.0165	0.9585
24.4751	-20.0118	914.7814	62.2811	-321.0197	-64.1101	896.7625	-0.59382	2.2376	-0.37524	0.86607	0.50867	2.1217	-0.0592	0.0182	-0.0073	-0.0462	0.0165	0.9585
24.4939	-17.8054	890.8544	62.4246	-311.8715	-62.7126	869.5091	0.17876	1.594	0.061977	0.57258	-0.028818	1.6958	-0.0592	0.0182	-0.0073	-0.0462	0.0165	0.9585
24.5127	-15.5447	861.8419	62.0577	-301.1189	-60.8921	837.2839	0.62411	1.1665	0.31123	0.38532	-0.34096	1.4071	-0.0592	0.0182	-0.0073	-0.0462	0.0165	0.9585
24.5315	-13.2052	829.1452	61.2324	-289.2435	-58.6848	801.4565	0.8312	0.85411	0.42515	0.25738	-0.48799	1.1757	-0.0592	0.0182	-0.0073	-0.0462	0.0165	0.9585
24.5503	-10.6872	794.657	60.0359	-276.8937	-56.1374	763.7979	0.87776	0.53779	0.45522	0.13762	-0.52798	0.89902	-0.0592	0.0182	-0.0073	-0.0462	0.0165	0.9585
24.5691	-7.8279	760.5654	58.5515	-264.826	-53.2702	726.2904	0.82778	0.096362	0.44323	-0.023339	-0.51042	0.46821	-0.0592	0.0182	-0.0073	-0.0462	0.0165	0.9585
24.5879	-4.4205	729.1882	56.8229	-253.851	-50.0469	690.979	0.73402	-0.58228	0.42036	-0.26959	-0.47564	-0.2225	-0.0592	0.0182	-0.0073	-0.0462	0.0165	0.9585
24.6066	-0.23782	702.8161	54.8582	-244.7772	-46.3822	659.8525	0.63767	-1.5813	0.41125	-0.63284	-0.45651	-1.2514	-0.0592	0.0182	-0.0073	-0.0462	0.0165	0.9585
24.6254	4.9225	683.4705	52.6718	-238.317	-42.1953	634.6497	0.56711	-2.929	0.43558	-1.1235	-0.47929	-2.6425	-0.0592	0.0182	-0.0073	-0.0462	0.0165	0.9585
24.6442	11.1509	672.579	50.3541	-234.9581	-37.5019	616.6086	0.54022	-4.5669	0.50515	-1.7199	-0.56161	-4.336	-0.0592	0.0182	-0.0073	-0.0462	0.0165	0.9585
24.663	18.3214	670.5913	48.1075	-234.8212	-32.4962	606.1844	0.56634	-6.3018	0.62383	-2.3502	-0.70927	-6.1347	-0.0592	0.0182	-0.0073	-0.0462	0.0165	0.9585
24.6818	26.0385	676.6425	46.2192	-237.5405	-27.5529	602.7898	0.65033	-7.7464	0.78471	-2.8705	-0.91555	-7.6436	-0.0592	0.0182	-0.0073	-0.0462	0.0165	0.9585
24.7006	33.6936	688.5565	44.9633	-242.2749	-23.1251	604.7944	0.79169	-8.2565	0.96772	-3.043	-1.1566	-8.2043	-0.0592	0.0182	-0.0073	-0.0462	0.0165	0.9585
24.7194	40.6498	703.3288	44.4841	-247.8942	-19.5798	609.8965	0.98049	-6.8781	1.1317	-2.5163	-1.3802	-6.8468	-0.0592	0.0182	-0.0073	-0.0462	0.0165	0.9585
24.7381	46.408	717.7394	44.759	-253.2106	-17.1071	615.5761	1.1919	-2.3355	1.2033	-0.81998	-1.4941	-2.2776	-0.0592	0.0182	-0.0073	-0.0462	0.0165	0.9585
24.7569	50.6747	728.8296	45.6584	-257.1565	-15.7422	619.4602	1.3765	6.9112	1.0762	2.6132	-1.3596	7.0654	-0.0592	0.0182	-0.0073	-0.0462	0.0165	0.9585
24.7757	53.346	734.1947	46.9859	-258.887	-15.3986	619.5739	1.4519	22.4921	0.60344	8.3819	-0.78709	22.8366	-0.0592	0.0182	-0.0073	-0.0462	0.0165	0.9585
24.7945	54.4531	732.0913	48.4964	-257.8173	-15.8935	614.4449	1.2985	45.7747	-0.3899	16.9831	0.45249	46.4294	-0.0592	0.0182	-0.0073	-0.0462	0.0165	0.9585
24.8133	54.1066	721.4281	49.9062	-253.6107	-16.9701	603.108	0.75668	77.2728	-2.0908	28.5967	2.6076	78.3782	-0.0592	0.0182	-0.0073	-0.0462	0.0165	0.9585
24.8321	52.4508	701.7798	50.9225	-246.1726	-18.3377	585.1348	-0.44061	115.8982	-4.6613	42.8116	5.9271	117.5977	-0.0592	0.0182	-0.0073	-0.0462	0.0165	0.9585
24.8509	49.6785	673.5385	51.3075	-235.6965	-19.7223	560.7567	-2.7194	158.7649	-8.2036	58.5415	10.6433	161.1893	-0.0592	0.0182	-0.0073	-0.0462	0.0165	0.9585
24.8696	46.1142	638.1128	50.9426	-222.7266	-20.8937	530.99	-6.2856	202.5367	-12.6232	74.5373	16.6991	205.7996	-0.0592	0.0182	-0.0073	-0.0462	0.0165	0.9585
24.8884	42.2374	597.7846	49.8402	-208.104	-21.6678	497.5153	-10.8767	245.501	-17.5038	90.1803	23.5668	249.6796	-0.0592	0.0182	-0.0073	-0.0462	0.0165	0.9585
24.9072	38.5572	555.0219	48.0824	-192.7255	-21.9025	462.1513	-15.9833	287.2888	-22.3672	105.3675	30.5827	292.3871	-0.0592	0.0182	-0.0073	-0.0462	0.0165	0.9585
24.926	35.4291	511.7624	45.7585	-177.2897	-21.5151	426.3276	-21.1337	327.7033	-26.81	120.0591	37.1769	333.6466	-0.0592	0.0182	-0.0073	-0.0462	0.0165	0.9585
24.9448	32.9586	469.1847	42.9625	-162.2145	-20.5171	390.9338	-25.9497	366.2196	-30.5476	134.0802	42.9307	372.872	-0.0592	0.0182	-0.0073	-0.0462	0.0165	0.9585
24.9636	31.0539	427.9277	39.7983	-147.7165	-19.0051	356.4893	-30.1046	401.9646	-33.4488	147.1115	47.589	409.1413	-0.0592	0.0182	-0.0073	-0.0462	0.0165	0.9585
24.9824	29.5513	388.4302	36.3844	-133.9348	-17.1189	323.3958	-33.3553	433.9626	-35.4805	158.7856	51.0225	441.4342	-0.0592	0.0182	-0.0073	-0.0462	0.0165	0.9585
25.0011	28.2965	351.1464	32.8586	-121.0067	-15.0145	292.0861	-35.5815	461.4589	-36.6562	168.8158	53.1934	468.9637	-0.0592	0.0182	-0.0073	-0.0462	0.0165	0.9585
25.0199	27.1741	316.5845	29.3688	-109.0858	-12.8462	263.0361	-36.7274	484.1555	-37.0407	177.0871	54.1396	491.4005	-0.0592	0.0182	-0.0073	-0.0462	0.0165	0.9585
25.0387	26.1136	285.1869	26.0398	-98.3029	-10.7397	236.6534	-36.7753	502.297	-36.7434	183.6863	53.9592	508.9601	-0.0592	0.0182	-0.0073	-0.0462	0.0165	0.9585
25.0575	25.0638	257.1047	22.9569	-88.6888	-8.7872	213.0868	-35.78	516.5963	-35.9153	188.8671	52.8251	522.3453	-0.0592	0.0182	-0.0073	-0.0462	0.0165	0.9585
25.0763	23.9526	231.9882	20.1622	-80.1058	-7.0569	192.0623	-33.9019	528.0846	-34.7708	192.9895	51.0138	532.5982	-0.0592	0.0182	-0.0073	-0.0462	0.0165	0.9585
25.0951	22.6695	209.0159	17.6561	-72.2581	-5.5972	172.9035	-31.3866	537.9849	-33.6188	196.4735	48.9232	540.9693	-0.0592	0.0182	-0.0073	-0.0462	0.0165	0.9585
25.1139	21.0965	187.2086	15.4065	-64.8001	-4.4311	154.7969	-28.524	547.6298	-32.8301	199.7789	47.0239	548.8203	-0.0592	0.0182	-0.0073	-0.0462	0.0165	0.9585
25.1326	19.1483	165.7696	13.3718	-57.4529	-3.5623	137.0769	-25.6131	558.3586	-32.7428	203.3774	45.7556	557.5162	-0.0592	0.0182	-0.0073	-0.0462	0.0165	0.9585
25.1514	16.8051	144.2853	11.5228	-50.071	-2.9798	119.3815	-22.9314	571.3285	-33.5657	207.6935	45.4218	568.2219	-0.0592	0.0182	-0.0073	-0.0462	0.0165	0.9585
25.1702	14.1249	122.7652	9.849	-42.6561	-2.6566	101.6846	-20.6989	587.3187	-35.3407	213.0362	46.1436	581.7035	-0.0592	0.0182	-0.0073	-0.0462	0.0165	0.9585
25.189	11.2244	101.5678	8.3475	-35.3323	-2.5484	84.2493	-19.0522	606.6534	-37.9575	219.5688	47.8644	598.2484	-0.0592	0.0182	-0.0073	-0.0462	0.0165	0.9585
25.2078	8.2603	81.2615	7.007	-28.2992	-2.5869	67.5296	-18.0124	629.2401	-41.1862	227.3184	50.3678	617.6991	-0.0592	0.0182	-0.0073	-0.0462	0.0165	0.9585
25.2266	5.4104	62.4704	5.7985	-21.7781	-2.6815	52.035	-17.4501	654.6989	-44.7109	236.2155	53.2999	639.5739	-0.0592	0.0182	-0.0073	-0.0462	0.0165	0.9585
25.2454	2.8449	45.7411	4.6744	-15.9649	-2.7319	38.2254	-17.1146	682.509	-48.1932	246.132	56.2392	663.2286	-0.0592	0.0182	-0.0073	-0.0462	0.0165	0.9585
25.2641	0.73331	31.4758	3.6021	-11.0055	-2.651	26.4445	-16.7324	712.1016	-51.3442	256.9011	58.7972	687.991	-0.0592	0.0182	-0.0073	-0.0462	0.0165	0.9585
25.2829	-0.74782	19.8907	2.5861	-6.9776	-2.3813	16.8699	-16.1093	742.9166	-53.9681	268.3277	60.7014	713.2512	-0.0592	0.0182	-0.0073	-0.0462	0.0165	0.9585
25.3017	-1.5111	11.0234	1.6652	-3.8949	-1.9246	9.531	-15.1949	774.3656	-55.9781	280.1669	61.8367	738.4731	-0.0592	0.0182	-0.0073	-0.0462	0.0165	0.9585
25.3205	-1.6945	4.7672	0.89935	-1.7196	-1.379	4.3415	-14.0994	805.6428	-57.3911	292.0589	62.2496	763.0337	-0.0592	0.0182	-0.0073	-0.0462	0.0165	0.9585
25.3393	-1.5381	0.80265	0.3248	-0.33906	-0.85951	1.0466	-13.0113	835.5169	-58.2961	303.4682	62.0931	785.987	-0.0592	0.0182	-0.0073	-0.0462	0.0165	0.9585
25.3581	-1.2262	-1.3625	-0.067224	0.41805	-0.42669	-0.75432	-12.0711	862.2771	-58.7941	313.6871	61.5243	805.9565	-0.0592	0.0182	-0.0073	-0.0462	0.0165	0.9585
25.3769	-0.88149	-2.2502	-0.30729	0.73201	-0.1048	-1.4953	-11.3105	883.9182	-58.9397	321.9197	60.6265	821.2663	-0.0592	0.0182	-0.0073	-0.0462	0.0165	0.9585
25.3956	-0.57703	-2.3323	-0.42953	0.76727	0.10296	-1.5765	-10.6579	898.4375	-58.7384	327.3965	59.4045	830.2028	-0.0592	0.0182	-0.0073	-0.0462	0.0165	0.9585
25.4144	-0.34973	-2.0011	-0.46699	0.65907	0.21029	-1.3295	-9.9919	904.2092	-58.1851	329.511	57.8368	831.359	-0.0592	0.0182	-0.0073	-0.0462	0.0165	0.9585
25.4332	-0.21032	-1.5563	-0.45108	0.51124	0.24207	-1.0061	-9.1907	900.3553	-57.2845	327.952	55.9095	823.9768	-0.0592	0.0182	-0.0073	-0.0462	0.0165	0.9585
25.452	-0.15718	-1.2176	-0.40865	0.40216	0.22493	-0.79594	-8.1305	887.0195	-56.0438	322.7996	53.6123	808.1986	-0.0592	0.0182	-0.0073	-0.0462	0.0165	0.9585
25.4708	-0.17772	-1.1391	-0.36026	0.38839	0.18155	-0.83312	-6.7014	865.4397	-54.4728	314.5431	50.941	785.1375	-0.0592	0.0182	-0.0073	-0.0462	0.0165	0.9585
25.4896	-0.2494	-1.4179	-0.32061	0.50706	0.13124	-1.2023	-4.8452	837.7552	-52.6131	304.0028	47.9315	756.7077	-0.0592	0.0182	-0.0073	-0.0462	0.0165	0.9585
25.5084	-0.34036	-2.0947	-0.29861	0.77391	0.092235	-1.9451	-2.5594	806.6622	-50.5625	292.1975	44.6802	725.3089	-0.0592	0.0182	-0.0073	-0.0462	0.0165	0.9585
25.5271	-0.41238	-3.1476	-0.29867	1.1809	0.084343	-3.0447	0.11877	775.0141	-48.4496	280.1971	41.3188	693.4698	-0.0592	0.0182	-0.0073	-0.0462	0.0165	0.9585
25.5459	-0.41459	-4.4651	-0.3193	1.6857	0.1248	-4.3899	3.1079	745.4449	-46.39	268.9849	37.9778	663.5124	-0.0592	0.0182	-0.0073	-0.0462	0.0165	0.9585
25.5647	-0.27777	-5.8052	-0.35408	2.1954	0.22913	-5.7449	6.2877	720.0865	-44.4701	259.3569	34.7713	637.2967	-0.0592	0.0182	-0.0073	-0.0462	0.0165	0.9585
25.5835	0.076465	-6.7474	-0.39157	2.5506	0.41254	-6.6976	9.5295	700.4129	-42.7569	251.8651	31.7939	616.0869	-0.0592	0.0182	-0.0073	-0.0462	0.0165	0.9585
25.6023	0.7313	-6.6504	-0.41086	2.5079	0.68481	-6.6125	12.7166	687.1307	-41.3115	246.7773	29.1248	600.4636	-0.0592	0.0182	-0.0073	-0.0462	0.0165	0.9585
25.6211	1.7582	-4.6282	-0.37745	1.7272	1.0411	-4.6107	15.7558	680.1247	-40.2041	244.0586	26.8407	590.2882	-0.0592	0.0182	-0.0073	-0.0462	0.0165	0.9585
25.6399	3.1938	0.44976	-0.246	-0.22575	1.453	0.43221	18.5765	678.5158	-39.4979	243.3922	25.0047	584.7688	-0.0592	0.0182	-0.0073	-0.0462	0.0165	0.9585
25.6586	5.0059	9.8817	0.032701	-3.85	1.861	9.8173	21.128	680.7861	-39.2129	244.2237	23.6345	582.57	-0.0592	0.0182	-0.0073	-0.0462	0.0165	0.9585
25.6774	7.0445	24.9372	0.50752	-9.6332	2.1603	24.8242	23.3617	684.948	-39.3139	245.8217	22.7005	581.9908	-0.0592	0.0182	-0.0073	-0.0462	0.0165	0.9585
25.6962	8.9662	46.5103	1.2206	-17.9172	2.1787	46.3647	25.2097	688.693	-39.695	247.3354	22.1312	581.1085	-0.0592	0.0182	-0.0073	-0.0462	0.0165	0.9585
25.715	10.0814	74.6806	2.2089	-28.7278	1.6148	74.5478	26.6035	689.5668	-40.1811	247.859	21.8083	577.9316	-0.0592	0.0182	-0.0073	-0.0462	0.0165	0.9585
